# xmcd
#
# Track frame offsets:
#	150
#	18583
#	28565
#	44965
#	60134
#	76550
#	97863
#	113234
#	133459
#	150981
#	167765
#	183845
#	198670
#	218505
#	237244
#	251384
#	269720
#	287692
#	303929
#
# Disc length: 4286 seconds
# Revision: 0
# Processed by: cddbd v1.5.2PL0 Copyright (c) Steve Scherf et al.
# Submitted via: dBpowerAMP V12.0
#
DISCID=fc10bc13
DTITLE=Various Artist - Best of Blues and Roots 2012
DYEAR=2010
DGENRE=Roots
TTITLE0=Aloe Blacc - I Need A Dollar
TTITLE1=Lanie Lane - Ain't Hungry
TTITLE2=Jeff Lang - Way Past Midnight
TTITLE3=Josh Pyke - No One Wants A Lover
TTITLE4=Lior - If I Lost Your Love
TTITLE5=City and Colour - Little Hell
TTITLE6=Dan Sultan - Old Fitzroy
TTITLE7=John Butler Trio - Used To Get High
TTITLE8=Husky - History's Door
TTITLE9=Dan Mangan - Post-War Blues
TTITLE10=Thom Crawford - Harder It Could Be
TTITLE11=Donavon Frankenreiter - Glow
TTITLE12=Joe Robinson - Out Alive
TTITLE13=Ash Grunwald - Walking
TTITLE14=Caitlin Harnett - Into The Wild
TTITLE15=Tim Chaisson And Morning Gold - Slippin' Away
TTITLE16=Claude Hay - Get Me Some
TTITLE17=Paul Greene - Drifting
TTITLE18=Danny Widdicombe - No One Else
EXTD=
EXTT0=
EXTT1=
EXTT2=
EXTT3=
EXTT4=
EXTT5=
EXTT6=
EXTT7=
EXTT8=
EXTT9=
EXTT10=
EXTT11=
EXTT12=
EXTT13=
EXTT14=
EXTT15=
EXTT16=
EXTT17=
EXTT18=
PLAYORDER=
